<svg width="24" height="24" viewBox="0 0 24 24" fill="none" xmlns="http://www.w3.org/2000/svg">
<path d="M12.4987 6.89576C11.5507 6.89576 10.0832 5.81789 8.53785 5.85685C6.49899 5.88282 4.62895 7.03861 3.57706 8.86968C1.46028 12.5448 3.03163 17.9731 5.09646 20.96C6.1094 22.4145 7.30414 24.0507 8.88848 23.9988C10.4079 23.9339 10.9793 23.0118 12.8233 23.0118C14.6544 23.0118 15.1739 23.9988 16.7842 23.9598C18.4205 23.9339 19.4594 22.4794 20.4593 21.0119C21.6151 19.3237 22.0956 17.6874 22.1216 17.5965C22.0826 17.5835 18.9399 16.3758 18.901 12.7396C18.875 9.70081 21.3814 8.24634 21.4982 8.18141C20.0697 6.0906 17.875 5.85685 17.1088 5.8049C15.1089 5.64907 13.4337 6.89576 12.4987 6.89576ZM15.8751 3.83098C16.7193 2.81804 17.2777 1.40253 17.1218 0C15.9141 0.0519454 14.4596 0.805154 13.5895 1.81809C12.8104 2.71415 12.1351 4.15564 12.3169 5.53219C13.6545 5.63608 15.031 4.84391 15.8751 3.83098Z" fill="white"/>
</svg>
