<svg width="18" height="20" viewBox="0 0 18 20" fill="none" xmlns="http://www.w3.org/2000/svg">
<path d="M14.8926 14.1421L8.99996 20L3.10737 14.1421C1.94194 12.9835 1.14828 11.5074 0.826745 9.90041C0.50521 8.29343 0.670243 6.62774 1.30098 5.11399C1.93171 3.60025 2.99981 2.30643 4.37022 1.39614C5.74063 0.485861 7.35179 0 8.99996 0C10.6481 0 12.2593 0.485861 13.6297 1.39614C15.0001 2.30643 16.0682 3.60025 16.6989 5.11399C17.3297 6.62774 17.4947 8.29343 17.1732 9.90041C16.8516 11.5074 16.058 12.9835 14.8926 14.1421ZM8.99996 10.1251C9.4911 10.1251 9.96213 9.93119 10.3094 9.58595C10.6567 9.2407 10.8518 8.77245 10.8518 8.2842C10.8518 7.79595 10.6567 7.3277 10.3094 6.98245C9.96213 6.63721 9.4911 6.44325 8.99996 6.44325C8.50882 6.44325 8.03779 6.63721 7.6905 6.98245C7.34321 7.3277 7.14811 7.79595 7.14811 8.2842C7.14811 8.77245 7.34321 9.2407 7.6905 9.58595C8.03779 9.93119 8.50882 10.1251 8.99996 10.1251Z" fill="#029B5E"/>
</svg>
